<svg xmlns="http://www.w3.org/2000/svg" width="28" height="19" viewBox="0 0 28 19">
    <path fill="#FFF" fill-rule="nonzero" d="M26.595 8.288H1.405C.617 8.288 0 8.82 0 9.5c0 .68.617 1.212 1.405 1.212h25.19c.788 0 1.405-.532 1.405-1.212 0-.68-.617-1.212-1.405-1.212zM28 1.212C28 .532 27.486 0 26.829 0H1.17C.514 0 0 .532 0 1.212c0 .68.514 1.213 1.171 1.213H26.83c.657 0 1.171-.533 1.171-1.213zm-1.755 15.363H1.755c-.984 0-1.755.533-1.755 1.213S.77 19 1.755 19h24.49c.984 0 1.755-.532 1.755-1.212 0-.68-.77-1.213-1.755-1.213z"/>
</svg>
