<svg xmlns="http://www.w3.org/2000/svg" width="148" height="47" viewBox="0 0 148 47">
    <path fill="#FFF" fill-rule="evenodd" d="M24.87 47l-2.165-.001c-1.81-.004-3.612-.143-5.408-.332a50.902 50.902 0 0 1-4.834-.73c-2.228-.452-4.424-1.012-6.535-1.87-1.211-.493-2.381-1.064-3.448-1.826-.854-.61-1.622-1.307-2.105-2.26-.512-1.01-.504-2.017.05-3.015.422-.76 1.028-1.353 1.7-1.886 1.078-.855 2.294-1.477 3.544-2.036.201-.09.032-.018.652-.272s.624-.254.624.45v.494c0 .656 0 .656-.58.966-.644.343-1.24.721-1.74 1.25-.691.732-.72 1.54-.041 2.272.269.29.586.549.917.769.937.624 1.982 1.019 3.05 1.354 2.655.833 5.387 1.292 8.148 1.571 1.684.17 3.375.292 5.066.363.518.022 1.811.033 3.105.033s2.588-.011 3.105-.033a86.525 86.525 0 0 0 5.067-.363c2.76-.28 5.493-.738 8.148-1.571 1.067-.335 2.113-.73 3.05-1.354.33-.22.647-.478.917-.77.679-.732.65-1.539-.042-2.27-.5-.53-1.096-.908-1.739-1.251-.58-.31-.58-.31-.58-.966v-.494c0-.704.003-.704.624-.45.62.254.45.182.65.272 1.25.56 2.467 1.18 3.546 2.036.672.533 1.277 1.126 1.699 1.886.554.998.562 2.005.05 3.015-.482.953-1.25 1.65-2.105 2.26-1.066.762-2.236 1.333-3.448 1.826-2.11.858-4.307 1.418-6.535 1.87-1.598.325-3.213.56-4.834.73-1.796.189-3.598.328-5.408.332L24.87 47zM38.682 2.633c.648.169.648.169.653.82.01 1.303.002 2.197 0 3.205 0 .69 0 .69-.646.563-4.965-.977-8.174-1.618-10.911-1.854-.648-.056-.648-.056-.648.571v29.767c0 .68 0 .68-.653.718-.543.031-1.076.045-1.608.044-.532.001-1.063-.013-1.606-.044-.653-.038-.653-.038-.653-.718V5.938c0-.627 0-.627-.647-.571-2.738.236-5.946.877-10.911 1.854-.647.127-.647.127-.648-.563 0-1.008-.009-1.902.001-3.204.005-.652.005-.652.653-.82C17.848.867 21.354-.007 24.87 0c3.516-.006 7.022.867 13.813 2.633zm.653 9.937c.01 1.31.002 2.2 0 3.216 0 .665 0 .665-.654.618-3.425-.25-6.014-.44-8.19-.558-.647-.036-.647-.036-.647-.738v-3.71c0-.677 0-.677.651-.611 2.178.22 4.768.569 8.192 1.036.643.087.643.087.648.747zm-28.93 0c.005-.66.005-.66.648-.747 3.424-.467 6.014-.815 8.192-1.036.651-.066.651-.066.651.612v3.709c0 .702 0 .702-.647.738-2.175.119-4.764.308-8.19.558-.654.047-.654.047-.655-.618 0-1.015-.009-1.906.001-3.216zm28.935 9.082a325.822 325.822 0 0 0-.001 3.209c.003.671.003.671-.651.702-3.425.163-6.014.286-8.19.365-.654.024-.654.024-.654-.622v-3.741c0-.617 0-.616.654-.613 2.164.01 4.747.041 8.187.08.657.009.657.009.655.62zm-28.94 0c-.002-.611-.002-.611.655-.62 3.44-.039 6.023-.07 8.187-.08.654-.003.654-.004.654.613v3.741c0 .646 0 .646-.654.622-2.175-.079-4.765-.202-8.19-.365-.654-.03-.654-.03-.65-.702.005-1.007.004-1.904-.001-3.209zm28.94 9.097a328.995 328.995 0 0 0 0 3.235c.002.66-.001.66-.644.772-3.43.597-6.02 1.048-8.2 1.333-.652.085-.652.085-.652-.601v-3.782c0-.648 0-.648.652-.702 2.177-.183 4.762-.487 8.193-.85.653-.068.653-.068.65.595zm-28.94 0c-.002-.663-.002-.663.651-.594 3.431.362 6.017.666 8.193.849.652.054.652.054.652.702v3.782c0 .686 0 .686-.652.601-2.18-.285-4.77-.736-8.2-1.333-.643-.112-.646-.112-.643-.772.005-1.023.005-1.917 0-3.235zM54.105 18.12v-1.902c0-.408.203-.612.61-.612h7.054c.407 0 .61.204.61.612v1.902c0 .393-.203.59-.61.59h-1.83v12.276c0 .408-.204.612-.611.612h-2.193c-.392 0-.588-.204-.588-.612V18.709h-1.832c-.407 0-.61-.196-.61-.589zm14.538-2.74c.889 0 1.631.12 2.227.362.595.242 1.119.665 1.571 1.269.452.604.78 1.445.983 2.525.204 1.08.306 2.435.306 4.066 0 2.16-.2 3.847-.6 5.062-.399 1.216-.949 2.043-1.65 2.48-.7.438-1.647.657-2.837.657-1.191 0-2.14-.219-2.85-.656-.708-.438-1.261-1.265-1.66-2.48-.4-1.216-.6-2.904-.6-5.063 0-2.16.2-3.847.6-5.062.399-1.216.952-2.047 1.66-2.492.71-.446 1.659-.668 2.85-.668zm0 13.386c.422 0 .742-.132.96-.396.22-.264.385-.766.498-1.506.113-.74.17-1.828.17-3.262 0-1.435-.057-2.522-.17-3.262-.113-.74-.279-1.242-.497-1.506-.22-.264-.54-.396-.961-.396-.437 0-.765.132-.984.396-.218.264-.384.766-.497 1.506-.113.74-.17 1.827-.17 3.262 0 1.434.057 2.522.17 3.262.113.74.279 1.242.497 1.506.219.264.547.396.984.396zm13.52-13.16H84.4c.392 0 .61.197.656.59l1.085 7.723.385 3.398h.045l.407-3.398 1.153-7.724c.075-.392.294-.589.655-.589h2.42c.422 0 .595.22.52.657L89.193 30.85c-.09.498-.361.748-.814.748h-2.961c-.453 0-.724-.25-.814-.748l-.837-5.074-.452-3.76h-.045l-.475 3.76-.837 5.074c-.09.498-.354.748-.79.748h-2.985c-.452 0-.724-.25-.814-.748l-2.51-14.587c-.075-.438.098-.657.52-.657h2.42c.346 0 .557.197.632.59l1.153 7.723.407 3.398h.046l.384-3.398 1.085-7.724c.045-.392.264-.589.656-.589zm17.952 9.355h-3.73v3.51h4.024c.407 0 .61.205.61.612v1.903c0 .408-.203.612-.61.612h-6.783c-.392 0-.588-.204-.588-.612V16.218c0-.408.196-.612.588-.612h6.692c.407 0 .61.204.61.612v1.902c0 .393-.203.59-.61.59h-3.934v3.238h3.73c.408 0 .611.204.611.612v1.79c0 .407-.203.611-.61.611zm5.9-1.314h.905c.739 0 1.228-.173 1.47-.52.24-.348.361-.997.361-1.949 0-.966-.124-1.623-.373-1.97-.248-.348-.75-.521-1.503-.521h-.86v4.96zm-2.803-8.04h3.685c1.96 0 3.335.403 4.127 1.211.79.808 1.187 2.261 1.187 4.36 0 1.374-.196 2.447-.588 3.217a3.31 3.31 0 0 1-1.809 1.63l2.216 4.825c.226.498.09.748-.407.748h-2.216c-.407 0-.686-.174-.836-.521l-1.922-4.485h-.633v4.394c0 .408-.204.612-.61.612h-2.194c-.392 0-.588-.204-.588-.612V16.218c0-.408.196-.612.588-.612zm19.082 6.953h.973c1.431 0 2.147-.966 2.147-2.9 0-.89-.18-1.55-.542-1.981-.362-.43-.965-.646-1.809-.646-.754 0-1.56.129-2.42.385-.225.03-.338-.053-.338-.249v-.86c0-.167.098-.287.294-.363.738-.287 1.582-.43 2.532-.43 2.653 0 3.98 1.344 3.98 4.031 0 1.828-.604 3.013-1.81 3.557 1.417.483 2.126 1.751 2.126 3.805 0 1.706-.366 2.944-1.097 3.715-.731.77-1.865 1.155-3.403 1.155-1.01 0-1.884-.129-2.622-.385-.196-.06-.294-.174-.294-.34v-.951c0-.227.12-.31.362-.25 1.085.272 1.869.408 2.35.408 1.056 0 1.82-.264 2.296-.793.475-.528.712-1.374.712-2.536 0-1.918-.806-2.877-2.42-2.877h-1.017c-.226 0-.339-.098-.339-.295v-.906c0-.196.113-.294.34-.294zm13.475-5.21a5.891 5.891 0 0 0-1.786-.294c-1.13 0-1.914.468-2.351 1.404-.437.936-.67 2.522-.701 4.757a2.703 2.703 0 0 1 1.051-1.36c.505-.346 1.104-.52 1.798-.52 2.487 0 3.73 1.714 3.73 5.142 0 1.63-.331 2.921-.994 3.873-.664.951-1.628 1.427-2.894 1.427-1.553 0-2.672-.65-3.358-1.948-.686-1.299-1.029-3.3-1.029-6.003 0-2.944.343-5.066 1.03-6.364.685-1.299 1.887-1.948 3.605-1.948.739 0 1.387.105 1.945.317.196.06.294.181.294.362v.906c0 .242-.114.325-.34.25zm-2.193 12.911c.754 0 1.32-.336 1.696-1.008.377-.672.565-1.582.565-2.73 0-2.46-.76-3.691-2.283-3.691-.724 0-1.304.283-1.741.85-.437.565-.656 1.468-.656 2.706 0 .604.072 1.185.215 1.744a3.5 3.5 0 0 0 .791 1.484c.385.43.856.645 1.413.645zm10.061-14.745c1.447 0 2.536.638 3.267 1.914.731 1.276 1.097 3.348 1.097 6.217 0 2.87-.366 4.942-1.097 6.218-.73 1.276-1.82 1.914-3.267 1.914-1.447 0-2.536-.638-3.267-1.914-.73-1.276-1.096-3.349-1.096-6.218 0-2.869.365-4.941 1.096-6.217.731-1.276 1.82-1.914 3.267-1.914zm0 14.723c.875 0 1.534-.514 1.979-1.54.444-1.028.667-2.711.667-5.052 0-2.34-.223-4.024-.667-5.05-.445-1.028-1.104-1.541-1.979-1.541-.874 0-1.533.513-1.978 1.54-.445 1.027-.667 2.71-.667 5.051 0 2.34.222 4.024.667 5.051.445 1.027 1.104 1.54 1.978 1.54z"/>
</svg>
